# Created by Metasequoia

mtllib c6.mtl

v 7.080000 4.392700 -38.823798
v -7.080000 4.389700 -38.814600
v 7.080000 4.496800 -38.927198
v -7.080000 4.493700 -38.918900
v 7.080000 4.291300 -36.416398
v -7.080000 4.291300 -36.415897
v 7.080000 4.395500 -36.520200
v -7.080000 4.395300 -36.520200
v 7.080000 3.323100 -36.316800
v -7.080000 3.320700 -36.311701
v 7.080000 3.427200 -36.420499
v -7.080000 3.424800 -36.415897
v 7.080000 3.221100 -33.905900
v -7.080000 3.221100 -33.904697
v 7.080000 3.325300 -34.008997
v -7.080000 3.325200 -34.008997
v 7.072700 2.282600 -33.812595
v -7.080000 2.280600 -33.800501
v 7.080000 2.386800 -33.915400
v -7.080000 2.386200 -33.904697
v 6.904299 2.178300 -31.432096
v -7.080000 2.147300 -31.407099
v 6.911699 2.282600 -31.537800
v -7.080000 2.252900 -31.511399
v 7.080000 7.482800 -46.385895
v -7.080000 7.482800 -46.385895
v 7.080000 -0.148438 -46.385895
v -7.080000 -0.148438 -46.385895
v -7.080000 7.587100 -43.968796
v -7.080000 7.587100 -46.281592
v 7.080000 7.587100 -43.968796
v 7.080000 7.587100 -46.281592
v -7.080000 6.618800 -43.899995
v -7.080000 7.482900 -43.868394
v 7.080000 6.618800 -43.899995
v 7.080000 7.482900 -43.868394
v -7.080000 6.517000 -41.526093
v -7.080000 6.514700 -43.799595
v 7.080000 6.517000 -41.526093
v 7.080000 6.514700 -43.799595
v -7.080000 5.557600 -41.430097
v -7.080000 6.412799 -41.422697
v 7.080000 5.557600 -41.430097
v 7.080000 6.412799 -41.422697
v -7.080000 5.464100 -39.023197
v -7.080000 5.453699 -41.326694
v 7.080000 5.464100 -39.023197
v 7.080000 5.453699 -41.326694
v -7.080000 5.360299 -38.918900
v 7.080000 5.360299 -38.919797
v -7.080000 1.176500 -31.407099
v 6.904299 1.207700 -31.416095
v 7.743099 8.156600 -40.420896
v 6.991500 8.156600 -48.043595
v 7.743099 8.156600 -48.043595
v 6.991500 8.156600 -40.420896
v 7.743099 8.108499 -40.260895
v 6.991500 8.108499 -40.260895
v 6.991500 2.330600 -31.506598
v 7.743099 2.330600 -31.506598
v 7.743099 2.282400 -31.257398
v 6.991500 2.282400 -31.257398
v 6.991500 2.275500 -27.101297
v 7.743099 2.275500 -27.101297
v 6.904299 2.188300 -27.100498
v 6.991500 2.188100 -27.013300
v -7.917700 2.195300 -31.402497
v -7.830499 2.275500 -27.101297
v -7.917700 2.188300 -27.100498
v -7.830499 2.282400 -31.257398
v -7.830499 2.330600 -31.506598
v -7.917700 8.069400 -40.359897
v -7.830499 8.108499 -40.260895
v -7.830499 8.156600 -40.420896
v -7.917700 8.069400 -48.043595
v -7.830499 8.156600 -48.043595
v -6.816599 2.282400 -31.257398
v -6.729300 2.188300 -27.100498
v -6.816599 2.275500 -27.101297
v -6.729300 2.195200 -31.402497
v -6.816599 2.330600 -31.506598
v -6.816599 8.108499 -40.260895
v -6.729300 8.069400 -40.359897
v -6.816599 8.156600 -40.420896
v -6.816599 8.156600 -48.043595
v -6.729300 8.069400 -48.043595
v -7.917700 -0.151437 -31.345798
v -7.917700 -0.151437 -27.083597
v -7.917700 -0.149937 -40.359897
v -7.917700 -0.148438 -48.043595
v 7.830299 2.188300 -27.100498
v 7.743099 2.188100 -27.013300
v 7.830299 8.069400 -48.043595
v 7.743099 8.069400 -48.130796
v 6.904299 8.069400 -48.043595
v 6.991500 8.069400 -48.130796
v 6.991500 -0.151437 -26.996399
v 6.904299 -0.151437 -27.083597
v 7.830299 -0.151437 -27.083597
v 7.743099 -0.151437 -26.996399
v 7.743099 -0.148438 -48.130796
v 7.830299 -0.148438 -48.043595
v 6.991500 -0.148438 -48.130796
v 6.904299 -0.148438 -48.043595
v 7.830299 2.195300 -31.402497
v 7.830299 8.069400 -40.359897
v 6.904299 2.195200 -31.402497
v 6.904299 8.069400 -40.359897
v 7.830299 -0.151437 -31.345798
v 7.830299 -0.149937 -40.359897
v 6.904299 -0.148438 -40.359897
v 6.904299 -0.148438 -31.345798
v -6.816599 2.188100 -27.013300
v -7.830499 2.188100 -27.013300
v -7.830499 8.069400 -48.130796
v -6.816599 8.069400 -48.130796
v -6.729300 -0.151437 -27.083597
v -6.816599 -0.151437 -26.996399
v -7.830499 -0.151437 -26.996399
v -7.830499 -0.148438 -48.130796
v -6.729300 -0.148438 -48.043595
v -6.816599 -0.148438 -48.130796
v -6.729300 -0.148438 -31.345798
v -6.729300 -0.148438 -40.359897
# 124 vertices

vt 1.26107 -0.46054
vt 1.69575 -0.46054
vt 1.26107 -0.46496
vt 1.69575 -0.46496
vt 1.26107 -0.40889
vt 1.69575 -0.40889
vt 1.26107 -0.41332
vt 1.69575 -0.41332
vt 1.26107 -0.38544
vt 1.69575 -0.38544
vt 1.26107 -0.38988
vt 1.69575 -0.38988
vt 1.26107 -0.33371
vt 1.69575 -0.33371
vt 1.26107 -0.33813
vt 1.69575 -0.33813
vt 1.26107 -0.31106
vt 1.69575 -0.31106
vt 1.26107 -0.31546
vt 1.69575 -0.31546
vt 1.26107 -0.26013
vt 1.69575 -0.26013
vt 1.26107 -0.26459
vt 1.69575 -0.26459
vt 1.26107 -0.69423
vt 1.69575 -0.69423
vt 1.26107 -0.78477
vt 1.69575 -0.78477
vt 1.69575 -0.63675
vt 1.69575 -0.68405
vt 1.26107 -0.63675
vt 1.26107 -0.68405
vt 1.69575 -0.61393
vt 1.69575 -0.63238
vt 1.26107 -0.61393
vt 1.26107 -0.63238
vt 1.69575 -0.56296
vt 1.69575 -0.60957
vt 1.26107 -0.56296
vt 1.26107 -0.60957
vt 1.69575 -0.53978
vt 1.69575 -0.55853
vt 1.26107 -0.53978
vt 1.26107 -0.55853
vt 1.69575 -0.48832
vt 1.69575 -0.53536
vt 1.26107 -0.48832
vt 1.26107 -0.53536
vt 1.69575 -0.48390
vt 1.26107 -0.48390
vt 1.69575 -0.23835
vt 1.26107 -0.23835
vt 1.44349 -0.73114
vt 1.40042 -0.79667
vt 1.44349 -0.79704
vt 1.40042 -0.73114
vt 1.44349 -0.71671
vt 1.40042 -0.71671
vt 1.40042 -0.45107
vt 1.44349 -0.45107
vt 1.44349 -0.43603
vt 1.40042 -0.43566
vt 1.40042 -0.34827
vt 1.44349 -0.34864
vt 1.39073 -0.33869
vt 1.40042 -0.32433
vt 1.45250 -0.44725
vt 1.45250 -0.33914
vt 1.45250 -0.72464
vt 1.45250 -0.78968
vt 1.39073 -0.44679
vt 1.39073 -0.72419
vt 1.39073 -0.78968
vt 2.25087 -0.30397
vt 2.18392 -0.50066
vt 2.18366 -0.30397
vt 2.25177 -0.50082
vt 2.39303 -0.30400
vt 2.39303 -0.63451
vt 2.51420 -0.63451
vt 2.51420 -0.30404
vt 1.44349 -0.32470
vt 1.44349 -0.77833
vt 1.40042 -0.77796
vt 1.40042 0.14029
vt 1.39073 0.13939
vt 1.45250 0.13894
vt 1.44349 0.13992
vt 1.55457 -0.34967
vt 1.55961 -0.34967
vt 1.55457 -0.64959
vt 1.55961 -0.64959
vt 1.51116 -0.34967
vt 1.51116 -0.64959
vt 1.50612 -0.34967
vt 1.50612 -0.64959
vt 2.39303 -0.30404
vt 2.25087 -0.30404
vt 2.25177 -0.50082
# 99 texture vertices

vn 0.00005 0.92347 0.38368
vn 0.00009 0.92404 0.38228
vn 0.00033 0.38026 0.92488
vn 0.00046 0.38335 0.92360
vn 0.00003 0.37961 0.92515
vn 0.00010 0.38148 0.92438
vn -0.00006 0.92419 0.38194
vn -0.00001 0.92462 0.38088
vn -0.00002 0.92369 0.38314
vn 0.00002 0.92402 0.38235
vn 0.00016 0.38125 0.92447
vn 0.00024 0.38290 0.92379
vn 0.00008 0.37495 0.92704
vn 0.00024 0.37905 0.92538
vn -0.00003 0.92374 0.38302
vn -0.00001 0.92444 0.38134
vn 0.00020 0.92258 0.38580
vn -0.00033 0.92141 0.38858
vn 0.00050 0.37694 0.92624
vn 0.00068 0.37959 0.92515
vn 0.00077 0.39337 0.91938
vn 0.00052 0.38661 0.92224
vn -0.00073 0.92277 0.38536
vn -0.00122 0.92034 0.39112
vn 0.00000 0.50546 -0.86285
vn 0.00000 0.25273 -0.96754
vn 0.00000 0.00000 -1.00000
vn 0.00000 0.92029 0.39124
vn 0.00000 0.92388 -0.38268
vn 0.00000 0.35730 0.93399
vn 0.00000 0.35708 0.93407
vn 0.00000 0.92333 0.38400
vn 0.00000 0.92058 0.39056
vn 0.00000 0.37757 0.92598
vn 0.00000 0.37689 0.92626
vn 0.00000 0.92519 0.37949
vn 0.00000 0.92428 0.38171
vn 0.00001 0.92478 0.38049
vn 0.00019 0.38081 0.92465
vn 0.00006 0.37782 0.92588
vn 0.00064 0.00000 1.00000
vn 0.00120 0.00824 0.99997
vn 0.36402 0.92670 0.09338
vn -0.37844 0.89287 -0.24408
vn 0.29240 0.84200 -0.45337
vn -0.28190 0.94367 0.17328
vn 0.23388 0.88160 0.40998
vn -0.39444 0.82233 0.41012
vn -0.24133 0.89546 0.37405
vn 0.44680 0.81267 0.37408
vn 0.27256 0.95783 0.09093
vn -0.48255 0.87325 0.06772
vn -0.24337 0.89334 0.37778
vn 0.45263 0.84242 0.29232
vn -0.84119 0.45476 0.29256
vn -0.37776 0.24963 0.89162
vn -0.90036 0.42558 0.09080
vn -0.45263 0.84242 0.29232
vn -0.89220 0.24654 0.37840
vn -0.27256 0.95783 0.09093
vn -0.44680 0.81267 0.37408
vn -0.83797 0.50827 0.19865
vn -0.23388 0.88160 0.40998
vn -0.36402 0.92670 0.09338
vn -0.89286 0.37845 -0.24408
vn -0.29240 0.84200 -0.45337
vn 0.48225 0.87341 0.06773
vn 0.84096 0.45506 0.29275
vn 0.24320 0.89338 0.37779
vn 0.90025 0.40794 0.15207
vn 0.24117 0.89550 0.37406
vn 0.39413 0.82244 0.41018
vn 0.89576 0.43387 0.09677
vn 0.28169 0.94373 0.17328
vn 0.37817 0.89297 -0.24409
vn 0.91006 0.29308 -0.29308
vn -1.00000 0.00000 0.00000
vn -0.92387 0.00276 0.38269
vn -0.86286 0.00000 -0.50545
vn 0.89220 0.24654 0.37840
vn 0.29164 0.45759 0.83998
vn 0.89286 0.37845 -0.24408
vn 0.45338 0.29241 -0.84199
vn -0.91018 0.29289 -0.29289
vn -0.32673 0.32673 -0.88685
vn -0.38267 0.00667 0.92386
vn -0.92387 0.00276 0.38269
vn 0.92387 0.00276 0.38269
vn 0.38267 0.00667 0.92386
vn 0.25273 0.00000 -0.96754
vn 0.86286 0.00000 -0.50545
vn -0.38268 -0.00000 -0.92388
vn -0.86286 0.00000 -0.50545
vn 0.90036 0.42558 0.09080
vn 0.83797 0.50827 0.19865
vn -0.90039 0.40768 0.15198
vn -0.89590 0.43359 0.09671
vn 1.00000 0.00000 0.00000
vn 0.37749 0.24965 0.89173
vn -0.29164 0.45759 0.83998
vn -0.45338 0.29241 -0.84199
vn 0.32649 0.32674 -0.88693
vn 0.92376 0.00277 0.38295
vn 0.38241 0.00667 0.92397
vn -0.38267 0.00667 0.92386
vn -0.25273 0.00000 -0.96754
vn 0.86266 0.00000 -0.50579
vn 0.38242 0.00000 -0.92399
# 108 normal vertices

g steps
usemtl mat1
f 3/3/3 2/2/2 1/1/1
f 2/2/2 3/3/3 4/4/4
f 7/7/7 6/6/6 5/5/5
f 6/6/6 7/7/7 8/8/8
f 11/11/11 10/10/10 9/9/9
f 10/10/10 11/11/11 12/12/12
f 15/15/15 14/14/14 13/13/13
f 14/14/14 15/15/15 16/16/16
f 19/19/19 18/18/18 17/17/17
f 18/18/18 19/19/19 20/20/20
f 23/23/23 22/22/22 21/21/21
f 22/22/22 23/23/23 24/24/24
f 27/27/27 26/26/26 25/25/25
f 26/26/26 27/27/27 28/28/27
f 31/31/28 30/30/29 29/29/28
f 30/30/29 31/31/28 32/32/29
f 35/35/30 34/34/31 33/33/30
f 34/34/31 35/35/30 36/36/31
f 39/39/32 38/38/33 37/37/32
f 38/38/33 39/39/32 40/40/33
f 43/43/34 42/42/35 41/41/34
f 42/42/35 43/43/34 44/44/35
f 47/47/38 46/46/37 45/45/36
f 46/46/37 47/47/38 48/48/37
f 3/3/3 49/49/39 4/4/4
f 49/49/39 3/3/3 50/50/40
f 7/7/7 2/2/2 8/8/8
f 2/2/2 7/7/7 1/1/1
f 11/11/11 6/6/6 12/12/12
f 6/6/6 11/11/11 5/5/5
f 15/15/15 10/10/10 16/16/16
f 10/10/10 15/15/15 9/9/9
f 19/19/19 14/14/14 20/20/20
f 14/14/14 19/19/19 13/13/13
f 23/23/23 18/18/18 24/24/24
f 18/18/18 23/23/23 17/17/17
f 52/52/42 22/22/22 51/51/41
f 22/22/22 52/52/42 21/21/21
f 47/47/38 49/49/39 50/50/40
f 49/49/39 47/47/38 45/45/36
f 43/43/34 46/46/37 48/48/37
f 46/46/37 43/43/34 41/41/34
f 39/39/32 42/42/35 44/44/35
f 42/42/35 39/39/32 37/37/32
f 35/35/30 38/38/33 40/40/33
f 38/38/33 35/35/30 33/33/30
f 31/31/28 34/34/31 36/36/31
f 34/34/31 31/31/28 29/29/28
f 25/25/25 30/30/29 32/32/29
f 30/30/29 25/25/25 26/26/26
f 55/55/45 54/54/44 53/53/43
f 56/56/46 53/53/43 54/54/44
f 53/53/43 56/56/46 57/57/47
f 58/58/48 57/57/47 56/56/46
f 59/59/49 57/57/47 58/58/48
f 57/57/47 59/59/49 60/60/50
f 60/60/50 59/59/49 61/61/51
f 62/62/52 61/61/51 59/59/49
f 63/63/53 61/61/51 62/62/52
f 61/61/51 63/63/53 64/64/54
f 66/66/56 63/63/53 65/65/55
f 69/68/59 68/64/58 67/67/57
f 70/61/60 67/67/57 68/64/58
f 71/60/61 67/67/57 70/61/60
f 67/67/57 71/60/61 72/69/62
f 73/57/63 72/69/62 71/60/61
f 74/53/64 72/69/62 73/57/63
f 72/69/62 74/53/64 75/70/65
f 76/55/66 75/70/65 74/53/64
f 79/63/69 78/65/68 77/62/67
f 80/71/70 77/62/67 78/65/68
f 77/62/67 80/71/70 81/59/71
f 81/59/71 80/71/70 82/58/72
f 83/72/73 82/58/72 80/71/70
f 82/58/72 83/72/73 84/56/74
f 84/56/74 83/72/73 85/54/75
f 86/73/76 85/54/75 83/72/73
f 88/76/78 69/75/59 87/74/77
f 67/77/57 87/74/77 69/75/59
f 87/74/77 67/77/57 89/78/77
f 72/79/62 89/78/77 67/77/57
f 75/80/65 89/78/77 72/79/62
f 89/78/77 75/80/65 90/81/79
f 92/82/81 91/68/80 64/64/54
f 94/83/83 55/55/45 93/70/82
f 54/54/44 96/84/85 95/73/84
f 66/66/56 98/86/87 97/85/86
f 98/86/87 66/66/56 65/65/55
f 91/68/80 100/88/89 99/87/88
f 100/88/89 91/68/80 92/82/81
f 92/82/81 63/63/53 66/66/56
f 63/63/53 92/82/81 64/64/54
f 94/91/83 102/90/91 101/89/90
f 102/90/91 94/91/83 93/92/82
f 104/95/93 96/94/85 103/93/92
f 96/94/85 104/95/93 95/96/84
f 96/84/85 55/55/45 94/83/83
f 55/55/45 96/84/85 54/54/44
f 105/67/94 64/64/54 91/68/80
f 64/64/54 105/67/94 61/61/51
f 61/61/51 105/67/94 60/60/50
f 106/69/95 60/60/50 105/67/94
f 60/60/50 106/69/95 57/57/47
f 57/57/47 106/69/95 53/53/43
f 93/70/82 53/53/43 106/69/95
f 53/53/43 93/70/82 55/55/45
f 62/62/52 65/65/55 63/63/53
f 65/65/55 62/62/52 107/71/96
f 59/59/49 107/71/96 62/62/52
f 58/58/48 107/71/96 59/59/49
f 107/71/96 58/58/48 108/72/97
f 56/56/46 108/72/97 58/58/48
f 54/54/44 108/72/97 56/56/46
f 108/72/97 54/54/44 95/73/84
f 100/88/89 66/66/56 97/85/86
f 66/66/56 100/88/89 92/82/81
f 109/74/98 91/75/80 99/76/88
f 91/75/80 109/74/98 105/77/94
f 110/78/98 105/77/94 109/74/98
f 105/77/94 110/78/98 106/79/95
f 106/79/95 110/78/98 93/80/82
f 102/81/91 93/80/82 110/78/98
f 111/97/77 95/80/84 104/81/93
f 95/80/84 111/97/77 108/79/97
f 112/98/77 108/79/97 111/97/77
f 108/79/97 112/98/77 107/99/96
f 98/76/87 107/99/96 112/98/77
f 107/99/96 98/76/87 65/75/55
f 96/94/85 101/89/90 103/93/92
f 101/89/90 96/94/85 94/91/83
f 79/63/69 113/66/99 78/65/68
f 69/68/59 114/82/100 68/64/58
f 76/55/66 115/83/101 75/70/65
f 116/84/102 85/54/75 86/73/76
f 113/66/99 117/86/103 78/65/68
f 117/86/103 113/66/99 118/85/104
f 69/68/59 119/88/105 114/82/100
f 119/88/105 69/68/59 88/87/78
f 114/82/100 79/63/69 68/64/58
f 79/63/69 114/82/100 113/66/99
f 115/91/101 90/90/79 75/92/65
f 90/90/79 115/91/101 120/89/106
f 121/95/107 116/94/102 86/96/76
f 116/94/102 121/95/107 122/93/108
f 116/84/102 76/55/66 85/54/75
f 76/55/66 116/84/102 115/83/101
f 119/88/105 113/66/99 114/82/100
f 113/66/99 119/88/105 118/85/104
f 117/76/103 80/99/70 78/75/68
f 123/98/98 80/99/70 117/76/103
f 80/99/70 123/98/98 83/79/73
f 124/97/98 83/79/73 123/98/98
f 83/79/73 124/97/98 86/80/76
f 121/81/107 86/80/76 124/97/98
f 116/94/102 120/89/106 115/91/101
f 120/89/106 116/94/102 122/93/108
f 74/53/64 85/54/75 76/55/66
f 85/54/75 74/53/64 84/56/74
f 73/57/63 84/56/74 74/53/64
f 84/56/74 73/57/63 82/58/72
f 82/58/72 73/57/63 81/59/71
f 71/60/61 81/59/71 73/57/63
f 70/61/60 81/59/71 71/60/61
f 81/59/71 70/61/60 77/62/67
f 77/62/67 70/61/60 79/63/69
f 68/64/58 79/63/69 70/61/60
# 166 elements

